<svg width="160" height="25" viewBox="0 0 160 25" fill="none" xmlns="http://www.w3.org/2000/svg">
<path d="M0 12.0295C0 18.6734 5.6411 24.0591 12.6 24.0591C19.5585 24.0591 25.2 18.6734 25.2 12.0295C25.2 5.38557 19.5585 -0.000183105 12.6 -0.000183105C5.6411 -0.000183105 0 5.38557 0 12.0295ZM6.76519 18.197C6.37542 17.8565 6.01566 17.4811 5.69917 17.0773L5.8161 16.9374L9.93711 11.9628L5.31954 7.84344L5.1726 7.7132C5.2794 7.54463 5.39282 7.3794 5.51598 7.21716C7.09844 5.07633 9.71027 3.67676 12.6651 3.67676C15.6203 3.67676 18.2321 5.07633 19.8146 7.21716C19.9682 7.42034 20.1081 7.6276 20.2379 7.84344L15.6203 11.9628L19.7413 16.9374C19.3983 17.3951 19.0019 17.8152 18.5654 18.197C17.0098 19.5549 14.9378 20.3818 12.6651 20.3818C10.3935 20.3818 8.32114 19.5549 6.76519 18.197Z" fill="#00B7D0"/>
<path d="M44.9878 18.9269C46.344 18.9269 47.4128 18.4749 48.1935 17.5704C48.9742 16.6664 49.3649 15.4447 49.3649 13.9047C49.3649 12.39 48.9742 11.1802 48.1935 10.2762C47.4128 9.37172 46.344 8.91922 44.9878 8.91922C43.6566 8.91922 42.6008 9.37172 41.8201 10.2762C41.0389 11.1802 40.6493 12.39 40.6493 13.9047C40.6493 15.4447 41.0389 16.6664 41.8201 17.5704C42.6008 18.4749 43.6566 18.9269 44.9878 18.9269ZM43.2602 24.0586C41.5191 24.0586 39.9706 23.625 38.6144 22.7573C37.2571 21.8901 36.1821 20.6927 35.3889 19.1651C34.5951 17.6381 34.1988 15.8842 34.1988 13.9047C34.1988 11.95 34.5951 10.2091 35.3889 8.68154C36.1821 7.15397 37.2639 5.95012 38.6337 5.07048C40.0024 4.19035 41.5706 3.75077 43.3368 3.75077C44.4888 3.75077 45.5831 3.95813 46.6196 4.37383C47.6565 4.78954 48.5201 5.32657 49.2112 5.98742V0.000488281H55.7383V23.6558H49.7487L49.5565 21.6032C48.8909 22.3117 48.0018 22.898 46.8883 23.3624C45.7748 23.8264 44.5654 24.0586 43.2602 24.0586Z" fill="white"/>
<path d="M68.141 8.8831C65.8113 8.8831 64.391 9.88556 63.879 11.889H71.7884V11.8522C71.7368 10.9969 71.3722 10.2883 70.6941 9.72594C70.016 9.16405 69.1644 8.8831 68.141 8.8831ZM68.8707 24.0225C66.5921 24.0225 64.6145 23.5889 62.9384 22.7212C61.2619 21.8539 59.9629 20.6625 59.0416 19.1469C58.1197 17.6323 57.6593 15.9093 57.6593 13.9784C57.6593 11.975 58.1067 10.2093 59.003 8.68171C59.8983 7.15415 61.1275 5.9508 62.689 5.07066C64.2499 4.19052 66.0296 3.75145 68.0259 3.75145C69.9457 3.75145 71.6477 4.17909 73.1321 5.03436C74.617 5.88964 75.7685 7.06266 76.5878 8.55292C77.4071 10.0442 77.8034 11.7423 77.7784 13.6483L77.7399 15.2246H63.9561C64.2884 16.2758 64.9353 17.1067 65.8952 17.7173C66.8545 18.3284 68.0894 18.6337 69.5998 18.6337C70.4446 18.6337 71.1936 18.5179 71.8462 18.2857C72.4988 18.0534 73.1962 17.6566 73.9389 17.0942L76.9722 21.2001C75.692 22.202 74.3738 22.9225 73.017 23.3626C71.6602 23.8027 70.278 24.0225 68.8707 24.0225Z" fill="white"/>
<path d="M90.547 18.9274C91.9033 18.9274 92.972 18.4754 93.7533 17.5709C94.5335 16.6669 94.9241 15.4452 94.9241 13.9052C94.9241 12.3905 94.5335 11.1807 93.7533 10.2767C92.972 9.3722 91.9033 8.9197 90.547 8.9197C89.2163 8.9197 88.1601 9.3722 87.3793 10.2767C86.5986 11.1807 86.2085 12.3905 86.2085 13.9052C86.2085 15.4452 86.5986 16.6669 87.3793 17.5709C88.1601 18.4754 89.2163 18.9274 90.547 18.9274ZM88.8194 24.0591C87.0783 24.0591 85.5299 23.6255 84.1736 22.7578C82.8169 21.8906 81.7413 20.6932 80.9486 19.1656C80.1544 17.6385 79.7585 15.8847 79.7585 13.9052C79.7585 11.9505 80.1544 10.2096 80.9486 8.68201C81.7413 7.15445 82.8231 5.9506 84.1929 5.07096C85.5616 4.19082 87.1299 3.75125 88.8965 3.75125C90.0481 3.75125 91.1424 3.9586 92.1793 4.37431C93.2158 4.79001 94.0793 5.32705 94.7705 5.98789V0.000961304H101.298V23.6563H95.3085L95.1158 21.6036C94.4501 22.3122 93.5611 22.8985 92.4476 23.3629C91.3345 23.8269 90.1252 24.0591 88.8194 24.0591Z" fill="white"/>
<path d="M110.832 24.0591C108.579 24.0591 106.819 23.3689 105.552 21.988C104.285 20.6081 103.651 18.6704 103.651 16.1776V4.15454H110.179V15.4452C110.179 16.5446 110.454 17.3999 111.005 18.011C111.555 18.6216 112.342 18.9274 113.365 18.9274C114.364 18.9274 115.183 18.6341 115.823 18.0473C116.462 17.4605 116.783 16.7152 116.783 15.8111V4.15454H123.31V23.6558H117.205L117.013 21.2367C116.347 22.0924 115.464 22.7762 114.364 23.2893C113.263 23.8025 112.085 24.0591 110.832 24.0591Z" fill="white"/>
<g opacity="0.889999">
<g opacity="0.889999">
<path opacity="0.889999" d="M149.095 23.6567V9.54368H148.339V4.15494H149.095V0.00187683H155.622V4.15494H159.424V9.54368H155.622V23.6567H149.095Z" fill="white"/>
</g>
</g>
<g opacity="0.889999">
<path opacity="0.889999" d="M125.667 23.6548H132.111V0.000442505H125.667V23.6548Z" fill="white"/>
<g opacity="0.889999">
<path opacity="0.889999" d="M147.454 4.17403H138.887L130.556 12.3538L132.207 14.4324L139.543 23.6743H147.182L138.005 12.602L147.454 4.17403Z" fill="white"/>
</g>
</g>
</svg>
