<svg width="160" height="25" viewBox="0 0 160 25" fill="none" xmlns="http://www.w3.org/2000/svg">
<path d="M0 12.0297C0 18.6736 5.6411 24.0593 12.6 24.0593C19.5585 24.0593 25.2 18.6736 25.2 12.0297C25.2 5.38581 19.5585 6.10352e-05 12.6 6.10352e-05C5.6411 6.10352e-05 0 5.38581 0 12.0297ZM6.76519 18.1973C6.37542 17.8568 6.01566 17.4813 5.69917 17.0776L5.8161 16.9376L9.93711 11.9631L5.31954 7.84368L5.1726 7.71345C5.2794 7.54487 5.39282 7.37965 5.51598 7.2174C7.09844 5.07658 9.71027 3.67701 12.6651 3.67701C15.6203 3.67701 18.2321 5.07658 19.8146 7.2174C19.9682 7.42058 20.1081 7.62785 20.2379 7.84368L15.6203 11.9631L19.7413 16.9376C19.3983 17.3953 19.0019 17.8155 18.5654 18.1973C17.0098 19.5551 14.9378 20.382 12.6651 20.382C10.3935 20.382 8.32114 19.5551 6.76519 18.1973Z" fill="#00B7D0"/>
<path d="M44.9877 18.9272C46.344 18.9272 47.4127 18.4752 48.1935 17.5707C48.9742 16.6667 49.3648 15.4449 49.3648 13.9049C49.3648 12.3903 48.9742 11.1805 48.1935 10.2765C47.4127 9.37197 46.344 8.91947 44.9877 8.91947C43.6565 8.91947 42.6008 9.37197 41.82 10.2765C41.0388 11.1805 40.6492 12.3903 40.6492 13.9049C40.6492 15.4449 41.0388 16.6667 41.82 17.5707C42.6008 18.4752 43.6565 18.9272 44.9877 18.9272ZM43.2601 24.0588C41.519 24.0588 39.9706 23.6252 38.6143 22.7575C37.257 21.8903 36.1821 20.6929 35.3888 19.1654C34.5951 17.6383 34.1987 15.8845 34.1987 13.9049C34.1987 11.9502 34.5951 10.2093 35.3888 8.68178C36.1821 7.15422 37.2638 5.95037 38.6336 5.07073C40.0023 4.19059 41.5706 3.75102 43.3367 3.75102C44.4888 3.75102 45.583 3.95837 46.6195 4.37408C47.6565 4.78978 48.52 5.32681 49.2112 5.98766V0.000732422H55.7382V23.6561H49.7487L49.5565 21.6034C48.8908 22.312 48.0018 22.8982 46.8882 23.3627C45.7747 23.8266 44.5653 24.0588 43.2601 24.0588Z" fill="white"/>
<path d="M68.1409 8.88334C65.8112 8.88334 64.3909 9.88581 63.8789 11.8892H71.7882V11.8524C71.7367 10.9972 71.3721 10.2886 70.694 9.72619C70.0159 9.16429 69.1643 8.88334 68.1409 8.88334ZM68.8706 24.0227C66.5919 24.0227 64.6143 23.5891 62.9383 22.7214C61.2618 21.8542 59.9628 20.6628 59.0415 19.1471C58.1196 17.6325 57.6592 15.9095 57.6592 13.9787C57.6592 11.9753 58.1066 10.2095 59.0029 8.68196C59.8982 7.15439 61.1274 5.95104 62.6888 5.07091C64.2498 4.19077 66.0294 3.75169 68.0258 3.75169C69.9455 3.75169 71.6476 4.17933 73.132 5.03461C74.6169 5.88988 75.7684 7.0629 76.5877 8.55317C77.407 10.0444 77.8033 11.7425 77.7783 13.6485L77.7398 15.2248H63.956C64.2883 16.276 64.9352 17.1069 65.8951 17.7175C66.8544 18.3287 68.0893 18.634 69.5997 18.634C70.4445 18.634 71.1935 18.5181 71.8461 18.2859C72.4987 18.0537 73.196 17.6569 73.9388 17.0945L76.9721 21.2003C75.6919 22.2023 74.3736 22.9228 73.0169 23.3629C71.6601 23.8029 70.2778 24.0227 68.8706 24.0227Z" fill="white"/>
<path d="M90.5468 18.9274C91.903 18.9274 92.9718 18.4754 93.753 17.5709C94.5332 16.6669 94.9239 15.4452 94.9239 13.9052C94.9239 12.3905 94.5332 11.1807 93.753 10.2767C92.9718 9.3722 91.903 8.9197 90.5468 8.9197C89.2161 8.9197 88.1598 9.3722 87.3791 10.2767C86.5984 11.1807 86.2083 12.3905 86.2083 13.9052C86.2083 15.4452 86.5984 16.6669 87.3791 17.5709C88.1598 18.4754 89.2161 18.9274 90.5468 18.9274ZM88.8192 24.0591C87.0781 24.0591 85.5296 23.6255 84.1734 22.7578C82.8166 21.8906 81.7411 20.6932 80.9484 19.1656C80.1541 17.6385 79.7583 15.8847 79.7583 13.9052C79.7583 11.9505 80.1541 10.2096 80.9484 8.68201C81.7411 7.15445 82.8229 5.9506 84.1927 5.07096C85.5614 4.19082 87.1296 3.75125 88.8963 3.75125C90.0478 3.75125 91.1421 3.9586 92.1791 4.37431C93.2155 4.79001 94.0791 5.32705 94.7702 5.98789V0.000961304H101.298V23.6563H95.3082L95.1155 21.6036C94.4499 22.3122 93.5608 22.8985 92.4473 23.3629C91.3343 23.8269 90.1249 24.0591 88.8192 24.0591Z" fill="white"/>
<path d="M110.832 24.0593C108.578 24.0593 106.819 23.3691 105.552 21.9883C104.285 20.6084 103.651 18.6706 103.651 16.1779V4.15479H110.178V15.4454C110.178 16.5448 110.453 17.4001 111.004 18.0112C111.554 18.6219 112.341 18.9277 113.365 18.9277C114.364 18.9277 115.183 18.6343 115.823 18.0475C116.462 17.4608 116.783 16.7154 116.783 15.8114V4.15479H123.31V23.6561H117.205L117.013 21.2369C116.347 22.0927 115.464 22.7764 114.364 23.2896C113.263 23.8027 112.085 24.0593 110.832 24.0593Z" fill="white"/>
<g opacity="0.889999">
<g opacity="0.889999">
<path opacity="0.889999" d="M149.095 23.657V9.54392H148.339V4.15518H149.095V0.00212097H155.622V4.15518H159.424V9.54392H155.622V23.657H149.095Z" fill="white"/>
</g>
</g>
<g opacity="0.889999">
<path opacity="0.889999" d="M125.667 23.6548H132.111V0.000442505H125.667V23.6548Z" fill="white"/>
<g opacity="0.889999">
<path opacity="0.889999" d="M147.454 4.17427H138.886L130.556 12.3541L132.207 14.4326L139.543 23.6746H147.182L138.005 12.6022L147.454 4.17427Z" fill="white"/>
</g>
</g>
</svg>
